<?xml version="1.0" encoding="UTF-8"?>
<svg width="220px" height="249px" viewBox="0 0 220 249" version="1.1" xmlns="http://www.w3.org/2000/svg" xmlns:xlink="http://www.w3.org/1999/xlink">
    <!-- Generator: Sketch 52.6 (67491) - http://www.bohemiancoding.com/sketch -->
    <title>Anchor-Feature-03</title>
    <desc>Created with Sketch.</desc>
    <defs>
        <rect id="path-1" x="0" y="0" width="180" height="180" rx="10"></rect>
        <filter x="-20.8%" y="-12.5%" width="141.7%" height="141.7%" filterUnits="objectBoundingBox" id="filter-2">
            <feOffset dx="0" dy="15" in="SourceAlpha" result="shadowOffsetOuter1"></feOffset>
            <feGaussianBlur stdDeviation="10" in="shadowOffsetOuter1" result="shadowBlurOuter1"></feGaussianBlur>
            <feColorMatrix values="0 0 0 0 0.0980392157   0 0 0 0 0.301960784   0 0 0 0 0.643137255  0 0 0 0.1 0" type="matrix" in="shadowBlurOuter1"></feColorMatrix>
        </filter>
        <linearGradient x1="50%" y1="4.79466675%" x2="-14.4942529%" y2="82.8038809%" id="linearGradient-3">
            <stop stop-color="#00F4A1" offset="0%"></stop>
            <stop stop-color="#00AE69" offset="99.95%"></stop>
        </linearGradient>
        <linearGradient x1="16.7637589%" y1="-23.471%" x2="62.2302934%" y2="102.3068%" id="linearGradient-4">
            <stop stop-color="#F4FFFC" offset="0%"></stop>
            <stop stop-color="#94FFD8" offset="100%"></stop>
        </linearGradient>
        <linearGradient x1="73.2028056%" y1="71.2894371%" x2="188.596711%" y2="180.185328%" id="linearGradient-5">
            <stop stop-color="#00F4A1" offset="0%"></stop>
            <stop stop-color="#00AE69" offset="99.95%"></stop>
        </linearGradient>
        <linearGradient x1="89.1119522%" y1="92.7775618%" x2="453.653785%" y2="490.304064%" id="linearGradient-6">
            <stop stop-color="#00F4A1" offset="0%"></stop>
            <stop stop-color="#00AE69" offset="99.95%"></stop>
        </linearGradient>
        <linearGradient x1="-27.2360129%" y1="-46.7810078%" x2="39.2163987%" y2="36.5523256%" id="linearGradient-7">
            <stop stop-color="#DBE6FF" offset="0%"></stop>
            <stop stop-color="#B6CCFF" offset="100%"></stop>
        </linearGradient>
        <linearGradient x1="-187.558389%" y1="-89.0375661%" x2="-17.5362416%" y2="12.3732804%" id="linearGradient-8">
            <stop stop-color="#00F4A1" offset="0%"></stop>
            <stop stop-color="#00AE69" offset="99.95%"></stop>
        </linearGradient>
        <linearGradient x1="17.4315217%" y1="37.4261905%" x2="209.46087%" y2="111.500265%" id="linearGradient-9">
            <stop stop-color="#00F4A1" offset="0%"></stop>
            <stop stop-color="#00AE69" offset="99.95%"></stop>
        </linearGradient>
        <linearGradient x1="-43.0731343%" y1="-18.5164311%" x2="180.812935%" y2="146.886926%" id="linearGradient-10">
            <stop stop-color="#00F4A1" offset="0%"></stop>
            <stop stop-color="#00AE69" offset="99.95%"></stop>
        </linearGradient>
        <linearGradient x1="62.2302934%" y1="102.3068%" x2="16.7637589%" y2="-23.471%" id="linearGradient-11">
            <stop stop-color="#F4FFFC" offset="0%"></stop>
            <stop stop-color="#94FFD8" offset="100%"></stop>
        </linearGradient>
    </defs>
    <g id="Desktop-Screens" stroke="none" stroke-width="1" fill="none" fill-rule="evenodd">
        <g id="Tickr-Homepage-Desktop-07" transform="translate(-610.000000, -1438.000000)">
            <g id="02-Section-Feature-Preview" transform="translate(140.000000, 1154.000000)">
                <g id="Anchor-Feature-03" transform="translate(490.000000, 289.000000)">
                    <g id="Background-Feature-Anchor">
                        <use fill="black" fill-opacity="1" filter="url(#filter-2)" xlink:href="#path-1"></use>
                        <use fill="#FFFFFF" fill-rule="evenodd" xlink:href="#path-1"></use>
                    </g>
                    <g id="Group-27" transform="translate(90.500000, 90.000000) scale(-1, 1) rotate(-180.000000) translate(-90.500000, -90.000000) translate(28.000000, 26.000000)">
                        <g id="Speaker" transform="translate(39.455696, 74.857143) scale(-1, -1) translate(-39.455696, -74.857143) translate(0.455696, 43.857143)">
                            <g id="Group">
                                <ellipse id="Oval" fill="url(#linearGradient-3)" cx="17.7670886" cy="31.4081633" rx="17.7303797" ry="17.7428571"></ellipse>
                                <polygon id="Path" fill="url(#linearGradient-4)" points="60.3493671 38.277551 14.0962025 58.2979592 14.243038 3.19591837 60.3860759 23.4734694"></polygon>
                                <path d="M20.6303797,61.0530612 L17.0696203,61.0530612 C15.3810127,61.0530612 13.9860759,59.6571429 13.9860759,57.9673469 L13.9860759,3.19591837 C13.9860759,1.50612245 15.3810127,0.110204082 17.0696203,0.110204082 L20.6303797,0.110204082 C22.3189873,0.110204082 23.7139241,1.50612245 23.7139241,3.19591837 L23.7139241,57.9673469 C23.7139241,59.6571429 22.3189873,61.0530612 20.6303797,61.0530612 Z" id="Path" fill="url(#linearGradient-5)"></path>
                                <path d="M52.4202532,41.6938776 L60.3126582,38.277551 L60.3493671,23.5102041 L52.4202532,20.0204082 C52.4202532,26.2653061 52.4202532,34.9346939 52.4202532,41.6938776 Z" id="Path" fill="url(#linearGradient-6)"></path>
                                <path d="M70.2607595,21.2693878 L61.9278481,21.2693878 C61.0835443,21.2693878 60.3860759,21.9673469 60.3860759,22.8122449 L60.3860759,38.6816327 C60.3860759,39.5265306 61.0835443,40.2244898 61.9278481,40.2244898 L70.2607595,40.2244898 C71.1050633,40.2244898 71.8025316,39.5265306 71.8025316,38.6816327 L71.8025316,22.8122449 C71.8025316,21.9673469 71.1050633,21.2693878 70.2607595,21.2693878 Z" id="Path" fill="url(#linearGradient-7)"></path>
                                <path d="M76.0974684,23.8040816 L71.7658228,23.8040816 L71.7658228,37.6897959 L76.0974684,37.6897959 C76.721519,37.6897959 77.235443,37.1755102 77.235443,36.5510204 L77.235443,24.9061224 C77.235443,24.3183673 76.721519,23.8040816 76.0974684,23.8040816 Z" id="Path" fill="url(#linearGradient-8)"></path>
                                <rect id="Rectangle" fill="url(#linearGradient-9)" x="71.8025316" y="23.8040816" width="3.37721519" height="13.8857143"></rect>
                                <rect id="Rectangle" fill="url(#linearGradient-10)" x="61.9278481" y="21.2693878" width="8.33291139" height="18.955102"></rect>
                                <g transform="translate(64.139241, 24.510204)" id="Path" stroke="#FFFFFF" stroke-linecap="round" stroke-width="2.734694">
                                    <path d="M0.330379747,1.18367347 L3.33037975,1.18367347"></path>
                                    <path d="M0.330379747,6.16326531 L3.33037975,6.16326531"></path>
                                    <path d="M0.330379747,11.1061224 L3.33037975,11.1061224"></path>
                                </g>
                                <path d="M62.735443,40.2244898 L69.4531646,40.2244898 L69.4531646,53.2044045 C69.4531646,55.0594521 67.9493514,56.5632653 66.0943038,56.5632653 L66.0943038,56.5632653 C64.2392562,56.5632653 62.735443,55.0594521 62.735443,53.2044045 L62.735443,40.2244898 Z" id="Rectangle" fill="url(#linearGradient-4)"></path>
                            </g>
                        </g>
                        <g id="Group-26-Copy-2" transform="translate(31.000000, -0.000000)">
                            <path d="M20.2499557,31.8571429 L9.07594937,38.8367347 L9.07594937,31.8571429 L4.67243606,31.8571429 C3.45515539,31.8571429 2.46835443,30.8703419 2.46835443,29.6530612 L2.46835443,4.67346939 C2.46835443,3.45618871 3.45515539,2.46938776 4.67243606,2.46938776 L44.3149057,2.46938776 C45.5321864,2.46938776 46.5189873,3.45618871 46.5189873,4.67346939 L46.5189873,29.6530612 C46.5189873,30.8703419 45.5321864,31.8571429 44.3149057,31.8571429 L20.2499557,31.8571429 Z" id="Combined-Shape-Copy" fill="url(#linearGradient-5)"></path>
                            <path d="M17.7816013,29.3877551 L6.60759494,36.3673469 L6.60759494,29.3877551 L2.20408163,29.3877551 C0.98680096,29.3877551 5.93163098e-16,28.4009541 4.4408921e-16,27.1836735 L4.4408921e-16,2.20408163 C2.95015322e-16,0.98680096 0.98680096,2.23610832e-16 2.20408163,0 L41.8465513,0 C43.063832,-2.23610832e-16 44.0506329,0.98680096 44.0506329,2.20408163 L44.0506329,27.1836735 C44.0506329,28.4009541 43.063832,29.3877551 41.8465513,29.3877551 L17.7816013,29.3877551 Z" id="Combined-Shape" fill="url(#linearGradient-4)"></path>
                            <ellipse id="Oval" fill="url(#linearGradient-5)" cx="11.7468354" cy="15.0612245" rx="2.93670886" ry="2.93877551"></ellipse>
                            <ellipse id="Oval-Copy" fill="url(#linearGradient-5)" cx="22.0253165" cy="15.0612245" rx="2.93670886" ry="2.93877551"></ellipse>
                            <ellipse id="Oval-Copy-2" fill="url(#linearGradient-5)" cx="32.3037975" cy="15.0612245" rx="2.93670886" ry="2.93877551"></ellipse>
                        </g>
                        <g id="Group-26-Copy" transform="translate(97.000000, 112.000000) scale(-1, 1) rotate(-180.000000) translate(-97.000000, -112.000000) translate(78.000000, 96.000000)">
                            <path d="M16.3689163,25.5658807 L7.44773377,31.122449 L7.44773377,25.5658807 L3.93558043,25.5658807 C2.96175595,25.5658807 2.17231523,24.77644 2.17231523,23.8026155 L2.17231523,3.93306904 C2.17231523,2.95924456 2.96175595,2.16980384 3.93558043,2.16980384 L35.578507,2.16980384 C36.5523314,2.16980384 37.3417722,2.95924456 37.3417722,3.93306904 L37.3417722,23.8026155 C37.3417722,24.77644 36.5523314,25.5658807 35.578507,25.5658807 L16.3689163,25.5658807 Z" id="Combined-Shape-Copy" fill="url(#linearGradient-5)"></path>
                            <path d="M14.196601,23.3960769 L5.27541854,28.9526451 L5.27541854,23.3960769 L1.7632652,23.3960769 C0.789440721,23.3960769 1.45152673e-15,22.6066362 1.33226763e-15,21.6328117 L-2.22044605e-16,1.7632652 C-3.41303708e-16,0.789440721 0.789440721,-4.8724516e-16 1.7632652,-6.66133815e-16 L33.4061917,-2.22044605e-16 C34.3800162,-4.0093326e-16 35.1694569,0.789440721 35.1694569,1.7632652 L35.1694569,21.6328117 C35.1694569,22.6066362 34.3800162,23.3960769 33.4061917,23.3960769 L14.196601,23.3960769 Z" id="Combined-Shape" fill="url(#linearGradient-11)"></path>
                            <ellipse id="Oval" fill="url(#linearGradient-5)" cx="9.37852185" cy="11.9904894" rx="2.34463046" ry="2.33960769"></ellipse>
                            <ellipse id="Oval-Copy" fill="url(#linearGradient-5)" cx="17.5847285" cy="11.9904894" rx="2.34463046" ry="2.33960769"></ellipse>
                            <ellipse id="Oval-Copy-2" fill="url(#linearGradient-5)" cx="25.7909351" cy="11.9904894" rx="2.34463046" ry="2.33960769"></ellipse>
                        </g>
                        <g id="Group-26-Copy-3" opacity="0.5" transform="translate(109.000000, 58.000000) scale(-1, 1) rotate(-90.000000) translate(-109.000000, -58.000000) translate(90.000000, 42.000000)">
                            <path d="M16.3689163,25.5658807 L7.44773377,31.122449 L7.44773377,25.5658807 L3.93558043,25.5658807 C2.96175595,25.5658807 2.17231523,24.77644 2.17231523,23.8026155 L2.17231523,3.93306904 C2.17231523,2.95924456 2.96175595,2.16980384 3.93558043,2.16980384 L35.578507,2.16980384 C36.5523314,2.16980384 37.3417722,2.95924456 37.3417722,3.93306904 L37.3417722,23.8026155 C37.3417722,24.77644 36.5523314,25.5658807 35.578507,25.5658807 L16.3689163,25.5658807 Z" id="Combined-Shape-Copy" fill="url(#linearGradient-5)"></path>
                            <path d="M14.196601,23.3960769 L5.27541854,28.9526451 L5.27541854,23.3960769 L1.7632652,23.3960769 C0.789440721,23.3960769 1.45152673e-15,22.6066362 1.33226763e-15,21.6328117 L-2.22044605e-16,1.7632652 C-3.41303708e-16,0.789440721 0.789440721,-4.8724516e-16 1.7632652,-6.66133815e-16 L33.4061917,-2.22044605e-16 C34.3800162,-4.0093326e-16 35.1694569,0.789440721 35.1694569,1.7632652 L35.1694569,21.6328117 C35.1694569,22.6066362 34.3800162,23.3960769 33.4061917,23.3960769 L14.196601,23.3960769 Z" id="Combined-Shape" fill="url(#linearGradient-11)"></path>
                            <ellipse id="Oval" fill="url(#linearGradient-5)" cx="9.37852185" cy="11.9904894" rx="2.34463046" ry="2.33960769"></ellipse>
                            <ellipse id="Oval-Copy" fill="url(#linearGradient-5)" cx="17.5847285" cy="11.9904894" rx="2.34463046" ry="2.33960769"></ellipse>
                            <ellipse id="Oval-Copy-2" fill="url(#linearGradient-5)" cx="25.7909351" cy="11.9904894" rx="2.34463046" ry="2.33960769"></ellipse>
                        </g>
                    </g>
                    <text id="Text-Feature-Title" font-family="Helvetica" font-size="16" font-weight="normal" line-spacing="24" letter-spacing="2" fill="#00CF83">
                        <tspan x="25.7773438" y="218">AD NETWORK</tspan>
                        <tspan x="45.3671875" y="242">MONITOR</tspan>
                    </text>
                </g>
            </g>
        </g>
    </g>
</svg>