<?xml version="1.0" encoding="UTF-8"?>
<svg width="416px" height="480px" viewBox="0 0 416 480" version="1.1" xmlns="http://www.w3.org/2000/svg" xmlns:xlink="http://www.w3.org/1999/xlink">
    <!-- Generator: Sketch 52.6 (67491) - http://www.bohemiancoding.com/sketch -->
    <title>Group 8</title>
    <desc>Created with Sketch.</desc>
    <defs>
        <rect id="path-1" x="0" y="0" width="376" height="440" rx="15"></rect>
        <filter x="-10.0%" y="-5.1%" width="119.9%" height="117.0%" filterUnits="objectBoundingBox" id="filter-2">
            <feOffset dx="0" dy="15" in="SourceAlpha" result="shadowOffsetOuter1"></feOffset>
            <feGaussianBlur stdDeviation="10" in="shadowOffsetOuter1" result="shadowBlurOuter1"></feGaussianBlur>
            <feColorMatrix values="0 0 0 0 0.0980392157   0 0 0 0 0.301960784   0 0 0 0 0.643137255  0 0 0 0.15 0" type="matrix" in="shadowBlurOuter1"></feColorMatrix>
        </filter>
        <linearGradient x1="55.4936993%" y1="44.3703777%" x2="5.07320901%" y2="174.85059%" id="linearGradient-3">
            <stop stop-color="#00F4A1" offset="0%"></stop>
            <stop stop-color="#00AE69" offset="99.95%"></stop>
        </linearGradient>
        <linearGradient x1="3.69671233%" y1="-2.18101366%" x2="99.0343562%" y2="105.350368%" id="linearGradient-4">
            <stop stop-color="#13D3FF" offset="0%"></stop>
            <stop stop-color="#5745F8" offset="100%"></stop>
        </linearGradient>
        <linearGradient x1="32.1794521%" y1="-17.5372111%" x2="65.8764384%" y2="110.082458%" id="linearGradient-5">
            <stop stop-color="#DBE6FF" offset="0%"></stop>
            <stop stop-color="#B6CCFF" offset="100%"></stop>
        </linearGradient>
        <linearGradient x1="67.4224955%" y1="67.1263609%" x2="210.486683%" y2="207.213291%" id="linearGradient-6">
            <stop stop-color="#FFFFFF" offset="0%"></stop>
            <stop stop-color="#B6CCFF" offset="100%"></stop>
        </linearGradient>
        <linearGradient x1="97.4849145%" y1="82.2476642%" x2="317.547123%" y2="231.517737%" id="linearGradient-7">
            <stop stop-color="#13D3FF" offset="0%"></stop>
            <stop stop-color="#5745F8" offset="100%"></stop>
        </linearGradient>
        <linearGradient x1="-0.171212121%" y1="50.0265152%" x2="100.057828%" y2="50.0265152%" id="linearGradient-8">
            <stop stop-color="#635FD5" offset="0%"></stop>
            <stop stop-color="#544ABC" offset="49.75%"></stop>
            <stop stop-color="#4435A3" offset="99.95%"></stop>
        </linearGradient>
        <linearGradient x1="82.8436869%" y1="60.6280303%" x2="345.469949%" y2="145.22399%" id="linearGradient-9">
            <stop stop-color="#635FD5" offset="0%"></stop>
            <stop stop-color="#544ABC" offset="49.75%"></stop>
            <stop stop-color="#4435A3" offset="99.95%"></stop>
        </linearGradient>
        <linearGradient x1="117.827708%" y1="72.8636762%" x2="915.559077%" y2="326.103652%" id="linearGradient-10">
            <stop stop-color="#13D3FF" offset="0%"></stop>
            <stop stop-color="#5745F8" offset="100%"></stop>
        </linearGradient>
        <linearGradient x1="-61.7813665%" y1="-44.7805541%" x2="838.839752%" y2="667.749432%" id="linearGradient-11">
            <stop stop-color="#00F4A1" offset="0%"></stop>
            <stop stop-color="#00AE69" offset="99.95%"></stop>
        </linearGradient>
        <linearGradient x1="30.5790404%" y1="21.0222222%" x2="249.013384%" y2="348.042424%" id="linearGradient-12">
            <stop stop-color="#00F4A1" offset="0%"></stop>
            <stop stop-color="#00AE69" offset="99.95%"></stop>
        </linearGradient>
        <linearGradient x1="115.165829%" y1="193.474874%" x2="396.572864%" y2="660.811558%" id="linearGradient-13">
            <stop stop-color="#13D3FF" offset="0%"></stop>
            <stop stop-color="#5745F8" offset="100%"></stop>
        </linearGradient>
        <linearGradient x1="237.100599%" y1="177.923226%" x2="793.986826%" y2="539.213548%" id="linearGradient-14">
            <stop stop-color="#635FD5" offset="0%"></stop>
            <stop stop-color="#544ABC" offset="49.75%"></stop>
            <stop stop-color="#4435A3" offset="99.95%"></stop>
        </linearGradient>
        <linearGradient x1="41.1233618%" y1="16.275837%" x2="133.003704%" y2="366.348617%" id="linearGradient-15">
            <stop stop-color="#635FD5" offset="0%"></stop>
            <stop stop-color="#4435A3" offset="99.95%"></stop>
        </linearGradient>
        <linearGradient x1="15.5355925%" y1="-202.941232%" x2="100.432118%" y2="406.853555%" id="linearGradient-16">
            <stop stop-color="#00F4A1" offset="0%"></stop>
            <stop stop-color="#00AE69" offset="99.95%"></stop>
        </linearGradient>
        <linearGradient x1="30.1422032%" y1="-16.2996661%" x2="74.4492776%" y2="180.237295%" id="linearGradient-17">
            <stop stop-color="#00F4A1" offset="0%"></stop>
            <stop stop-color="#00AE69" offset="99.95%"></stop>
        </linearGradient>
        <linearGradient x1="51.1801113%" y1="55.0437662%" x2="100.322392%" y2="261.104416%" id="linearGradient-18">
            <stop stop-color="#635FD5" offset="0%"></stop>
            <stop stop-color="#4435A3" offset="99.95%"></stop>
        </linearGradient>
        <linearGradient x1="140.633498%" y1="168.631227%" x2="310.186077%" y2="406.335%" id="linearGradient-19">
            <stop stop-color="#00F4A1" offset="0%"></stop>
            <stop stop-color="#00B871" offset="85.93%"></stop>
            <stop stop-color="#00AE69" offset="99.95%"></stop>
        </linearGradient>
        <linearGradient x1="238.598567%" y1="112.957214%" x2="601.088593%" y2="237.335323%" id="linearGradient-20">
            <stop stop-color="#DBE6FF" offset="0%"></stop>
            <stop stop-color="#B6CCFF" offset="100%"></stop>
        </linearGradient>
        <linearGradient x1="55.3568957%" y1="80.5355703%" x2="146.588362%" y2="655.788691%" id="linearGradient-21">
            <stop stop-color="#00F4A1" offset="0%"></stop>
            <stop stop-color="#00AE69" offset="99.95%"></stop>
        </linearGradient>
    </defs>
    <g id="Desktop-Screens" stroke="none" stroke-width="1" fill="none" fill-rule="evenodd">
        <g id="Tickr-Homepage-Desktop-07" transform="translate(-120.000000, -8578.000000)">
            <g id="10-Section-Page-Preview-Modules" transform="translate(140.000000, 8313.000000)">
                <g id="Group-8" transform="translate(0.000000, 270.000000)">
                    <g id="Rectangle">
                        <use fill="black" fill-opacity="1" filter="url(#filter-2)" xlink:href="#path-1"></use>
                        <use fill="#FFFFFF" fill-rule="evenodd" xlink:href="#path-1"></use>
                    </g>
                    <g id="Group-28" transform="translate(90.000000, 161.000000)">
                        <g id="Leaf_1" transform="translate(93.415205, 71.850394)">
                            <g id="Group">
                                <path d="M73.2421053,0.517322835 C57.2526316,-1.89685039 55.819883,34.8905512 44.5298246,28.5102362 C30.7181287,20.6929134 21.605848,26.4984252 25.3309942,52.2496063 C28.6549708,75.184252 -2.63625731,57.480315 0.229239766,85.2433071 C3.26666667,114.328346 20.9754386,147.092126 39.9450292,147.092126 C74.2163743,147.092126 104.762573,112.488976 102.183626,85.4732283 C99.5473684,58.4574803 78.5719298,78.8629921 91.6385965,57.8826772 C103.501754,38.8566929 99.1461988,32.4188976 81.2081871,31.6141732 C67.8549708,31.0393701 90.148538,3.04645669 73.2421053,0.517322835 Z" id="Path" fill="url(#linearGradient-3)"></path>
                                <path d="M73.528655,0.804724409 L36.9649123,147.092126" id="Path" stroke="#FFFFFF" stroke-width="0.573099415" stroke-linecap="round"></path>
                                <path d="M57.5391813,16.0370079 L66.1929825,30.1771654" id="Path" stroke="#FFFFFF" stroke-width="0.573099415" stroke-linecap="round"></path>
                                <path d="M61.0923977,50.6401575 L97.4842105,47.1913386" id="Path" stroke="#FFFFFF" stroke-width="0.573099415" stroke-linecap="round"></path>
                                <path d="M25.6175439,52.5944882 L53.8140351,79.7826772" id="Path" stroke="#FFFFFF" stroke-width="0.573099415" stroke-linecap="round"></path>
                                <path d="M46.2491228,108.350394 L99.948538,102.372441" id="Path" stroke="#FFFFFF" stroke-width="0.573099415" stroke-linecap="round"></path>
                            </g>
                        </g>
                        <g id="Phone" transform="translate(25.216374, 0.000000)">
                            <g id="Group">
                                <g id="Path">
                                    <path d="M93.4152047,218.94252 L16.5625731,218.94252 C8.94035088,218.94252 2.69356725,212.677165 2.69356725,205.032283 L2.69356725,13.9677165 C2.69356725,6.32283465 8.94035088,0.057480315 16.5625731,0.057480315 L93.4152047,0.057480315 C101.037427,0.057480315 107.284211,6.32283465 107.284211,13.9677165 L107.284211,205.032283 C107.226901,212.734646 101.037427,218.94252 93.4152047,218.94252 Z" fill="url(#linearGradient-4)"></path>
                                    <path d="M90.7216374,218.94252 L13.8690058,218.94252 C6.24678363,218.94252 0,212.677165 0,205.032283 L0,13.9677165 C0,6.32283465 6.24678363,0.057480315 13.8690058,0.057480315 L90.7216374,0.057480315 C98.3438596,0.057480315 104.590643,6.32283465 104.590643,13.9677165 L104.590643,205.032283 C104.590643,212.734646 98.4011696,218.94252 90.7216374,218.94252 Z" fill="url(#linearGradient-5)"></path>
                                    <path d="M90.4923977,5.46062992 L80.405848,5.46062992 C79.8327485,5.46062992 79.3169591,5.86299213 79.1450292,6.38031496 L79.1450292,7.7023622 C79.1450292,10.6338583 76.7380117,13.0480315 73.8152047,13.0480315 L30.8327485,13.0480315 C27.9099415,13.0480315 25.502924,10.6338583 25.502924,7.7023622 L25.502924,6.78267717 C25.502924,6.03543307 24.9298246,5.46062992 24.1847953,5.46062992 L14.1555556,5.46062992 C8.88304094,5.46062992 4.58479532,9.77165354 4.58479532,15.0598425 L4.58479532,203.882677 C4.58479532,209.170866 8.88304094,213.48189 14.1555556,213.48189 L90.5497076,213.48189 C95.8222222,213.48189 100.120468,209.170866 100.120468,203.882677 L100.120468,15.1173228 C100.120468,9.82913386 95.7649123,5.46062992 90.4923977,5.46062992 Z" fill="url(#linearGradient-6)"></path>
                                </g>
                                <g transform="translate(4.011696, 28.740157)">
                                    <g>
                                        <rect id="Rectangle" fill="url(#linearGradient-7)" x="0.515789474" y="0.402362205" width="36.8502924" height="78.7480315"></rect>
                                        <path d="M7.22105263,12.3007874 L29.6865497,12.3007874" id="Path" stroke="#FFFFFF" stroke-width="4.01169591" stroke-linecap="round"></path>
                                        <path d="M7.22105263,27.5330709 L29.6865497,27.5330709" id="Path" stroke="#FFFFFF" stroke-width="4.01169591" opacity="0.8" stroke-linecap="round"></path>
                                        <path d="M7.22105263,42.8228346 L29.6865497,42.8228346" id="Path" stroke="#FFFFFF" stroke-width="4.01169591" opacity="0.6" stroke-linecap="round"></path>
                                        <path d="M7.22105263,58.1700787 L29.6865497,58.1700787" id="Path" stroke="#FFFFFF" stroke-width="4.01169591" opacity="0.4" stroke-linecap="round"></path>
                                    </g>
                                    <g transform="translate(7.450292, 93.118110)">
                                        <ellipse id="Oval" fill="url(#linearGradient-8)" cx="11.5766082" cy="11.7259843" rx="11.3473684" ry="11.3811024"></ellipse>
                                        <path d="M21.2046784,17.8188976 C24.528655,12.4732283 22.9239766,5.46062992 17.651462,2.06929134 C17.594152,2.06929134 17.594152,2.01181102 17.5368421,2.01181102 L5.44444444,21.3251969 C5.50175439,21.3251969 5.50175439,21.3826772 5.55906433,21.3826772 C10.8315789,24.7165354 17.8233918,23.1070866 21.2046784,17.8188976 Z" id="Path" stroke="#3FA9F5" stroke-width="0.573099415" fill="#FFFFFF" stroke-linecap="round"></path>
                                        <path d="M17.5368421,2.01181102 C14.671345,0.22992126 11.2900585,-0.11496063 8.30994152,0.804724409 L11.5766082,11.7259843 L17.5368421,2.01181102 Z" id="Path" stroke="#3FA9F5" stroke-width="0.573099415" fill="#FFFFFF" stroke-linecap="round"></path>
                                        <ellipse id="Oval" fill="url(#linearGradient-9)" cx="70.1473684" cy="11.7259843" rx="11.3473684" ry="11.3811024"></ellipse>
                                        <path d="M79.7754386,17.8188976 C83.0994152,12.4732283 81.4947368,5.46062992 76.2222222,2.06929134 C76.1649123,2.06929134 76.1649123,2.01181102 76.1076023,2.01181102 L64.0152047,21.3251969 C64.0725146,21.3251969 64.0725146,21.3826772 64.1298246,21.3826772 C69.4023392,24.7165354 76.394152,23.1070866 79.7754386,17.8188976 Z" id="Path" fill="url(#linearGradient-10)"></path>
                                        <path d="M76.1076023,2.01181102 C73.2421053,0.22992126 69.8608187,-0.11496063 66.8807018,0.804724409 L70.1473684,11.7259843 L76.1076023,2.01181102 Z" id="Path" fill="url(#linearGradient-11)"></path>
                                        <ellipse id="Oval" fill="url(#linearGradient-12)" cx="40.9766082" cy="11.7259843" rx="11.3473684" ry="11.3811024"></ellipse>
                                        <g transform="translate(29.228070, 0.000000)" fill="url(#linearGradient-10)" id="Path">
                                            <path d="M11.805848,0.34488189 C5.50175439,0.34488189 0.401169591,5.46062992 0.401169591,11.7259843 C0.401169591,17.0716535 4.01169591,21.4976378 8.94035088,22.7622047 C8.4245614,22.6472441 7.90877193,22.4748031 7.39298246,22.2448819 L11.9204678,11.7259843 L11.9204678,0.34488189 C11.9204678,0.34488189 11.805848,0.34488189 11.805848,0.34488189 Z"></path>
                                        </g>
                                        <path d="M36.5637427,22.2448819 C37.9391813,22.819685 39.3719298,23.1070866 40.9192982,23.1070866 C43.5555556,23.1070866 46.019883,22.1874016 47.9684211,20.6354331 L41.2631579,11.6685039 L36.5637427,22.2448819 Z" id="Path" fill="url(#linearGradient-13)"></path>
                                        <path d="M50.8912281,17.0141732 L41.3204678,11.7834646 L47.9684211,20.6929134 C49.1719298,19.6582677 50.2035088,18.3937008 50.8912281,17.0141732 Z" id="Path" fill="url(#linearGradient-14)"></path>
                                    </g>
                                    <path d="M84.9906433,48.2259843 L47.051462,48.2259843 C46.4210526,48.2259843 45.9052632,47.7086614 45.9052632,47.076378 L45.9052632,9.88661417 C45.9052632,9.25433071 46.4210526,8.73700787 47.051462,8.73700787 L84.9906433,8.73700787 C85.6210526,8.73700787 86.1368421,9.25433071 86.1368421,9.88661417 L86.1368421,47.076378 C86.1368421,47.7086614 85.6210526,48.2259843 84.9906433,48.2259843 Z" id="Path" fill="url(#linearGradient-15)"></path>
                                    <g transform="translate(45.847953, 53.456693)" id="Path" stroke="#00CF83" stroke-linecap="round" stroke-width="2.29239766">
                                        <path d="M0.0573099415,0.57480315 L30.0304094,0.57480315"></path>
                                        <path d="M0.0573099415,8.33464567 L37.8245614,8.33464567" opacity="0.6"></path>
                                        <path d="M0.0573099415,16.0944882 L24.8152047,16.0944882" opacity="0.3"></path>
                                    </g>
                                    <g transform="translate(6.877193, 125.881890)" id="Path" stroke="#709AFF" stroke-linecap="round" stroke-width="2.29239766">
                                        <path d="M0.114619883,0.57480315 L75.1906433,0.57480315"></path>
                                        <path d="M0.114619883,8.33464567 L82.0678363,8.33464567" opacity="0.7"></path>
                                        <path d="M0.114619883,16.0370079 L53.8140351,16.0370079" opacity="0.4"></path>
                                    </g>
                                </g>
                            </g>
                        </g>
                        <g id="People_1" transform="translate(0.000000, 85.645669)">
                            <g id="Group">
                                <path d="M40.9192982,6.32283465 C48.0830409,6.03543307 53.4701754,10.6913386 52.6105263,18.623622 C51.7508772,26.5559055 52.3812865,30.3496063 55.819883,29.6023622 C48.6561404,32.1889764 42.180117,29.8897638 44.6444444,18.6811024 C47.1087719,7.47244094 40.9192982,8.27716535 40.9192982,8.27716535 L40.9192982,6.32283465 Z" id="Path" fill="#072351"></path>
                                <path d="M41.3777778,9.08188976 C40.9766082,9.13937008 40.5754386,8.79448819 40.5181287,8.39212598 L40.2315789,5.92047244 C40.174269,5.51811024 40.5181287,5.11574803 40.9192982,5.05826772 C41.3204678,5.0007874 41.7216374,5.34566929 41.7789474,5.7480315 L42.0654971,8.21968504 C42.122807,8.67952756 41.8362573,9.02440945 41.3777778,9.08188976 Z" id="Path" fill="#072351"></path>
                                <path d="M32.4947368,0.057480315 C25.6748538,-0.22992126 23.7836257,7.24251969 26.7637427,14.6574803 C29.8011696,22.0149606 35.5894737,20.1181102 38.9707602,15.1173228 C42.3520468,10.1165354 42.0654971,0.402362205 32.4947368,0.057480315 Z" id="Path" fill="#072351"></path>
                                <path d="M26.477193,13.3354331 C25.502924,13.3354331 24.6432749,12.5307087 24.6432749,11.496063 C24.6432749,10.5188976 25.6748538,9.71417323 26.7637427,10.576378 L26.477193,13.3354331 Z" id="Path" fill="#EF9F8F"></path>
                                <g transform="translate(0.000000, 16.094488)" id="Path">
                                    <path d="M31.0046784,13.0480315 C31.348538,12.415748 31.5777778,11.7259843 31.5777778,10.9787402 C31.6350877,8.67952756 29.8011696,6.78267717 27.451462,6.78267717 C25.9040936,6.78267717 24.528655,7.58740157 23.7836257,8.8519685 C23.6690058,9.08188976 12.2643275,25.923622 12.2643275,25.923622 L12.3216374,25.923622 C12.0923977,26.3259843 11.9777778,26.7858268 11.9777778,27.3031496 C12.0350877,28.7976378 13.2959064,30.0047244 14.7859649,29.9472441 C15.7602339,29.8897638 16.5625731,29.3724409 17.0210526,28.6251969 L17.0783626,28.6826772 L30.4315789,13.7377953 C30.6608187,13.507874 30.8327485,13.2779528 31.0046784,13.0480315 Z" fill="#FFC8BB"></path>
                                    <path d="M19.3707602,14.2551181 L27.6807018,18.9110236 C27.6807018,18.9110236 30.7754386,13.2779528 30.9473684,13.0480315 C31.2912281,12.415748 31.5204678,11.7259843 31.5204678,10.9787402 C31.5777778,8.67952756 29.7438596,6.78267717 27.394152,6.78267717 C26.3052632,6.78267717 25.3309942,7.18503937 24.5859649,7.81732283 C24.3567251,8.04724409 21.2619883,11.1511811 19.3707602,14.2551181 Z" fill="url(#linearGradient-16)"></path>
                                    <path d="M16.2187135,29.7748031 C17.5368421,29.0275591 17.9380117,27.3606299 17.1929825,26.0385827 C17.0783626,25.8661417 17.0210526,25.7511811 16.9064327,25.6362205 C16.9064327,25.6362205 16.9064327,25.6362205 16.9064327,25.6362205 L4.29824561,7.87480315 C3.95438596,7.3 3.20935673,7.07007874 2.63625731,7.41496063 C2.06315789,7.75984252 1.83391813,8.50708661 2.17777778,9.08188976 L12.5508772,28.7401575 C13.2959064,30.119685 14.9578947,30.5795276 16.2187135,29.7748031 Z" fill="#FFC8BB"></path>
                                    <path d="M4.29824561,7.87480315 C4.87134503,5.57559055 3.55321637,1.5519685 2.00584795,0.402362205 C2.00584795,3.04645669 2.12046784,5.7480315 2.12046784,5.7480315 C2.12046784,5.7480315 1.54736842,5.23070866 0.74502924,4.36850394 C-0.0573099415,3.50629921 0,4.77086614 0.74502924,6.20787402 C1.49005848,7.58740157 2.17777778,9.19685039 2.17777778,9.19685039 L4.29824561,7.87480315 Z" fill="#FFC8BB"></path>
                                </g>
                                <g transform="translate(17.192982, 21.267717)" id="Path">
                                    <g transform="translate(0.000000, 25.866142)">
                                        <path d="M4.24093567,43.9724409 C4.4128655,41.9031496 6.30409357,40.3511811 8.36725146,40.523622 C10.4304094,40.696063 11.9777778,42.5929134 11.805848,44.6622047 L10.2011696,81.8519685 C10.0865497,82.9440945 9.16959064,83.7488189 8.08070175,83.6338583 C7.10643275,83.5188976 6.36140351,82.7141732 6.30409357,81.7370079 L4.35555556,45.0645669 C4.24093567,44.719685 4.18362573,44.3748031 4.24093567,43.9724409 Z" fill="#FFC8BB"></path>
                                        <path d="M7.67953216,5.92047244 C7.73684211,5.80551181 7.73684211,5.69055118 7.79415205,5.57559055 C8.71111111,1.95433071 12.3216374,-0.22992126 15.9321637,0.68976378 C19.5426901,1.60944882 21.7204678,5.23070866 20.8035088,8.8519685 L11.805848,44.7771654 C11.2900585,46.7889764 9.22690058,48.0535433 7.22105263,47.5362205 C5.21520468,47.0188976 3.95438596,44.9496063 4.47017544,42.9377953 L7.62222222,6.55275591 C7.62222222,6.43779528 7.62222222,6.32283465 7.67953216,6.20787402 L7.67953216,5.92047244 Z" stroke="#3FA9F5" stroke-width="0.573099415" fill="#FFFFFF" stroke-linecap="round"></path>
                                        <path d="M4.01169591,81.7944882 L9.91461988,81.7944882 C10.5450292,81.7944882 11.0608187,82.311811 11.0608187,82.9440945 L11.0608187,85.415748 C11.0608187,85.7031496 10.8315789,85.9330709 10.5450292,85.9330709 L1.03157895,85.9330709 C0.74502924,85.9330709 0.515789474,85.7031496 0.515789474,85.415748 L0.515789474,85.3582677 C0.515789474,83.3464567 2.06315789,81.7944882 4.01169591,81.7944882 Z" fill="#072351"></path>
                                    </g>
                                    <g transform="translate(12.035088, 26.440945)">
                                        <path d="M3.7251462,43.9724409 C3.55321637,41.9031496 5.1005848,40.0637795 7.22105263,39.8913386 C9.28421053,39.7188976 11.1181287,41.2708661 11.2900585,43.3976378 L17.0210526,80.5874016 C17.0210526,80.5874016 17.0210526,80.5874016 17.0210526,80.5874016 C17.1356725,81.9669291 16.1040936,83.1740157 14.728655,83.2889764 C13.4678363,83.403937 12.3789474,82.5417323 12.0923977,81.3346457 L12.0350877,81.3346457 L3.89707602,45.1220472 C3.83976608,44.6622047 3.7251462,44.3173228 3.7251462,43.9724409 Z" fill="#FFC8BB"></path>
                                        <path d="M0.401169591,7.01259843 C0.401169591,6.8976378 0.401169591,6.78267717 0.401169591,6.61023622 C0.630409357,2.87401575 3.83976608,0.11496063 7.56491228,0.34488189 C11.2900585,0.57480315 14.0409357,3.79370079 13.8116959,7.52992126 L11.2327485,44.4897638 C11.1181287,46.5590551 9.28421053,48.1685039 7.16374269,48.0535433 C5.1005848,47.9385827 3.49590643,46.0992126 3.61052632,43.9724409 L0.343859649,7.58740157 C0.343859649,7.47244094 0.343859649,7.35748031 0.343859649,7.24251969 L0.401169591,7.01259843 Z" stroke="#3FA9F5" stroke-width="0.573099415" fill="#FFFFFF" stroke-linecap="round"></path>
                                        <path d="M11.748538,81.219685 L17.651462,81.219685 C18.2818713,81.219685 18.7976608,81.7370079 18.7976608,82.3692913 L18.7976608,84.8409449 C18.7976608,85.1283465 18.5684211,85.3582677 18.2818713,85.3582677 L8.76842105,85.3582677 C8.48187135,85.3582677 8.25263158,85.1283465 8.25263158,84.8409449 L8.25263158,84.7834646 C8.25263158,82.7716535 9.8,81.219685 11.748538,81.219685 Z" fill="#072351"></path>
                                    </g>
                                    <path d="M7.62222222,32.3614173 C0.630409357,55.2385827 1.54736842,74.3220472 1.6619883,75.8165354 C1.77660819,77.3685039 4.24093567,80.6448819 11.0035088,81.1047244 C24.528655,82.0244094 28.3111111,79.207874 31.9789474,77.196063 C31.9789474,77.196063 29.9157895,72.1952756 27.0502924,59.8944882 C24.1847953,47.5937008 31.1766082,40.2937008 26.3625731,32.3614173 C20.4023392,32.3614173 7.62222222,32.3614173 7.62222222,32.3614173 Z" fill="#072351"></path>
                                    <path d="M13.6397661,0.11496063 C8.36725146,0.172440945 6.24678363,3.21889764 5.61637427,7.7023622 C5.15789474,11.2086614 5.04327485,11.3811024 4.98596491,13.0480315 C4.81403509,18.3362205 9.34152047,17.2440945 8.65380117,24.6590551 C7.96608187,32.2464567 4.47017544,32.303937 5.84561404,34.3732283 C7.16374269,36.4425197 9.74269006,37.419685 16.0467836,37.7070866 C22.3508772,37.9944882 28.0818713,36.4425197 28.2538012,35.407874 C28.4830409,34.0858268 24.6432749,29.3149606 24.7005848,20.0606299 C24.7578947,10.8062992 30.8327485,-0.11496063 13.6397661,0.11496063 Z" fill="url(#linearGradient-17)"></path>
                                </g>
                                <g transform="translate(18.912281, 24.141732)">
                                    <g transform="translate(0.000000, 9.771654)">
                                        <path d="M34.4432749,44.6622047 L6.99181287,44.6622047 C3.20935673,44.6622047 0.114619883,41.5582677 0.114619883,37.7645669 L0.114619883,7.3 C0.114619883,3.50629921 3.20935673,0.402362205 6.99181287,0.402362205 L34.4432749,0.402362205 C38.225731,0.402362205 41.3204678,3.50629921 41.3204678,7.3 L41.3204678,37.7645669 C41.3204678,41.5582677 38.225731,44.6622047 34.4432749,44.6622047 Z" id="Path" fill="url(#linearGradient-18)"></path>
                                        <g transform="translate(5.730994, 7.472441)">
                                            <path d="M17.4222222,0.632283465 C9.45614035,-0.747244094 1.89122807,4.65590551 0.573099415,12.588189 C-0.802339181,20.5779528 4.58479532,28.1653543 12.4935673,29.4874016 C20.4023392,30.8094488 28.0245614,25.4637795 29.3426901,17.5314961 C30.7181287,9.54173228 25.3883041,1.95433071 17.4222222,0.632283465 Z M22.1216374,16.3818898 C20.6888889,22.7622047 12.780117,24.4291339 8.94035088,19.0834646 C7.79415205,17.5314961 7.39298246,15.519685 7.79415205,13.680315 C9.22690058,7.3 17.1356725,5.63307087 20.9754386,10.9787402 C22.1216374,12.5307087 22.522807,14.5425197 22.1216374,16.3818898 Z" id="Shape" fill="#FFFFFF" fill-rule="nonzero"></path>
                                            <path d="M22.1789474,16.1519685 C22.1789474,16.2669291 22.1789474,16.3244094 22.1216374,16.4393701 C20.6888889,22.819685 12.780117,24.4866142 8.94035088,19.1409449 C7.79415205,17.5889764 7.39298246,15.5771654 7.79415205,13.7377953 C7.79415205,13.7377953 7.79415205,13.7377953 7.79415205,13.7377953 L0.573099415,12.4732283 C0.573099415,12.5307087 0.573099415,12.588189 0.573099415,12.588189 C-0.802339181,20.5779528 4.58479532,28.1653543 12.4935673,29.4874016 C20.4596491,30.8669291 28.0245614,25.4637795 29.3426901,17.5314961 C29.3426901,17.4740157 29.3426901,17.4165354 29.3426901,17.3590551 L22.1789474,16.1519685 Z" id="Path" fill="url(#linearGradient-19)"></path>
                                            <path d="M26.3052632,5.80551181 L20.574269,10.4614173 C20.6888889,10.6338583 20.8608187,10.8062992 20.9754386,10.9787402 C22.0643275,12.4732283 22.4654971,14.3700787 22.1216374,16.2094488 L29.4,17.3590551 C30.0877193,13.1055118 28.8269006,8.90944882 26.3052632,5.80551181 Z" id="Path" fill="url(#linearGradient-20)"></path>
                                        </g>
                                    </g>
                                    <g transform="translate(9.742690, 0.000000)" id="Path">
                                        <path d="M19.8292398,20.4055118 C18.5684211,19.5433071 16.9064327,19.888189 16.0467836,21.0952756 C15.9321637,21.2677165 15.8748538,21.3826772 15.8175439,21.5551181 C15.8175439,21.5551181 15.8175439,21.5551181 15.8175439,21.5551181 L5.32982456,40.6385827 C4.92865497,41.2133858 5.1005848,41.9606299 5.67368421,42.3629921 C6.24678363,42.7653543 6.99181287,42.5929134 7.39298246,42.0181102 L20.574269,24.084252 C21.3766082,22.992126 21.0900585,21.2677165 19.8292398,20.4055118 Z" fill="#FFC8BB"></path>
                                        <path d="M13.8116959,2.12677165 C13.4678363,1.49448819 12.9520468,0.977165354 12.2643275,0.632283465 C10.2584795,-0.517322835 7.73684211,0.172440945 6.59064327,2.18425197 C5.84561404,3.56377953 5.90292398,5.17322835 6.64795322,6.38031496 C6.7625731,6.61023622 16.0467836,24.7165354 16.0467836,24.7165354 L16.1040936,24.7165354 C16.3333333,25.1188976 16.677193,25.4637795 17.1356725,25.6937008 C18.4538012,26.3834646 20.1157895,25.8086614 20.8035088,24.4866142 C21.2619883,23.6244094 21.1473684,22.6472441 20.6888889,21.9 L20.7461988,21.8425197 L14.1555556,2.87401575 C14.0982456,2.58661417 13.9836257,2.35669291 13.8116959,2.12677165 Z" fill="#FFC8BB"></path>
                                        <path d="M4.29824561,45.3519685 C5.04327485,43.9149606 4.18362573,45.1795276 2.80818713,46.5590551 C1.43274854,47.9385827 1.60467836,46.7889764 2.69356725,45.4669291 C3.78245614,44.1448819 2.98011696,44.4897638 1.71929825,45.6393701 C0.458479532,46.7889764 0.515789474,45.984252 1.71929825,44.6047244 C2.92280702,43.2251969 2.40701754,43.3401575 1.31812865,44.3173228 C0.171929825,45.2944882 0.229239766,44.719685 1.20350877,43.6850394 C1.49005848,43.3976378 2.86549708,41.9606299 3.32397661,41.5582677 C2.06315789,41.7307087 1.20350877,41.5582677 3.0374269,40.9834646 C5.04327485,40.2937008 5.84561404,40.1787402 6.30409357,40.4086614 C6.30409357,40.4086614 6.30409357,40.4086614 6.30409357,40.4086614 C6.47602339,40.4661417 6.59064327,40.523622 6.7625731,40.5811024 C7.96608187,41.3283465 8.88304094,42.707874 4.29824561,46.7314961 C2.46432749,48.3984252 3.49590643,46.7889764 4.29824561,45.3519685 Z" fill="#FFC8BB"></path>
                                        <path d="M9.28421053,12.8755906 L17.3649123,7.81732283 C17.3649123,7.81732283 13.9263158,2.35669291 13.8116959,2.12677165 L13.8116959,2.06929134 C13.4678363,1.43700787 12.9520468,0.919685039 12.2643275,0.57480315 C10.2584795,-0.57480315 7.73684211,0.11496063 6.59064327,2.12677165 C6.0748538,3.04645669 5.96023392,4.08110236 6.13216374,5.05826772 C6.24678363,5.57559055 7.50760234,9.71417323 9.28421053,12.8755906 Z" fill="url(#linearGradient-21)"></path>
                                    </g>
                                </g>
                                <path d="M30.2596491,23.911811 C29.1707602,23.7393701 28.425731,22.7047244 28.5976608,21.6125984 L29.2853801,17.5889764 C29.4573099,16.4968504 30.4888889,15.7496063 31.5777778,15.9220472 C32.6666667,16.0944882 33.4116959,17.1291339 33.2397661,18.2212598 L32.5520468,22.2448819 C32.380117,23.3944882 31.348538,24.084252 30.2596491,23.911811 Z" id="Path" fill="#FFC8BB"></path>
                                <path d="M29.1134503,18.7385827 L32.4947368,18.7385827 C32.4947368,18.7385827 31.5777778,21.7850394 28.5976608,21.6125984 L29.1134503,18.7385827 Z" id="Path" fill="#EF9F8F"></path>
                                <path d="M31.8070175,19.3133858 L29.9730994,19.0259843 C27.3368421,18.5661417 25.502924,16.0370079 25.9614035,13.3354331 L27.394152,5.05826772 C27.8526316,2.41417323 30.374269,0.57480315 33.0678363,1.03464567 L34.9017544,1.32204724 C37.5380117,1.78188976 39.3719298,4.31102362 38.9134503,7.01259843 L37.4807018,15.2897638 C36.9649123,17.9338583 34.4432749,19.7732283 31.8070175,19.3133858 Z" id="Path" fill="#FFC8BB"></path>
                                <path d="M37.7672515,13.7952756 C36.9076023,11.5535433 37.9391813,9.42677165 34.7298246,7.98976378 C31.5204678,6.55275591 27.9099415,8.56456693 27.5087719,4.31102362 C27.1076023,0 33.5263158,-1.09212598 36.8502924,1.20708661 C40.174269,3.50629921 41.6070175,8.4496063 37.7672515,13.7952756 Z" id="Path" fill="#072351"></path>
                                <circle id="Oval" fill="#072351" transform="translate(29.179414, 10.114409) rotate(-67.975154) translate(-29.179414, -10.114409) " cx="29.179414" cy="10.1144087" r="1"></circle>
                                <circle id="Oval" fill="#072351" transform="translate(32.890691, 10.648171) rotate(-67.975154) translate(-32.890691, -10.648171) " cx="32.8906912" cy="10.6481709" r="1"></circle>
                                <path d="M30.2023392,10.3464567 C29.4,12.2433071 29.2280702,13.7952756 30.6035088,14.0826772" id="Path" stroke="#EF9F8F" stroke-width="0.573099415" stroke-linecap="round"></path>
                                <path d="M30.4315789,15.3472441 C31.2912281,15.9220472 32.4947368,15.0598425 32.7812865,14.6" id="Path" stroke="#EF9F8F" stroke-width="0.573099415" stroke-linecap="round"></path>
                                <path d="M36.7356725,14.1401575 C37.7099415,14.1976378 38.6269006,13.3929134 38.6842105,12.415748 C38.7415205,11.4385827 37.7672515,10.576378 36.6210526,11.3811024 L36.7356725,14.1401575 Z" id="Path" fill="#FFC8BB"></path>
                                <path d="M27.9672515,8.33464567 C28.4830409,7.64488189 29.6865497,8.21968504 29.6865497,8.21968504" id="Path" stroke="#072351" stroke-width="0.573099415" stroke-linecap="round"></path>
                                <path d="M29.6292398,23.6818898 C29.1707602,25.8086614 28.9415205,28.4527559 28.9415205,28.4527559" id="Path" stroke="#FFFFFF" stroke-width="0.573099415" stroke-linecap="round"></path>
                            </g>
                        </g>
                    </g>
                    <text id="Text-Headline" font-family="Helvetica" font-size="26" font-weight="normal" line-spacing="36" letter-spacing="2.166667" fill="#00CF83">
                        <tspan x="40" y="65">EXPLORE TICKR </tspan>
                        <tspan x="40" y="101">FEATURE</tspan>
                        <tspan x="174.591474" y="101" letter-spacing="2.253333">S</tspan>
                    </text>
                </g>
            </g>
        </g>
    </g>
</svg>