<?xml version="1.0" encoding="UTF-8"?>
<svg width="36px" height="37px" viewBox="0 0 36 37" version="1.1" xmlns="http://www.w3.org/2000/svg" xmlns:xlink="http://www.w3.org/1999/xlink">
    <!-- Generator: Sketch 52.6 (67491) - http://www.bohemiancoding.com/sketch -->
    <title>Group 22</title>
    <desc>Created with Sketch.</desc>
    <g id="Desktop-Screens" stroke="none" stroke-width="1" fill="none" fill-rule="evenodd">
        <g id="Tickr-Homepage-Desktop-07" transform="translate(-728.000000, -9593.000000)" fill="#FFFFFF">
            <g id="11-Section-Footer" transform="translate(0.000000, 9149.000000)">
                <g id="Social" transform="translate(728.000000, 444.000000)">
                    <g id="Group-22">
                        <g id="Group-19">
                            <path d="M36,34.2966822 C36,35.4031544 35.1105663,36.3 34.0132385,36.3 L24.8394214,36.3 L24.8394214,22.243156 L29.5189998,22.243156 L30.220152,16.7641906 L24.8394214,16.7641906 L24.8394214,13.2667892 C24.8394214,11.6807469 25.2767835,10.5999837 27.5322383,10.5999837 L30.4094141,10.598006 L30.4094141,5.69848002 C29.9122334,5.63124132 28.2039716,5.48292065 26.2172101,5.48292065 C22.0691346,5.48292065 19.2292228,8.03601373 19.2292228,12.7239356 L19.2292228,16.7641906 L14.5378769,16.7641906 L14.5378769,22.243156 L19.2292228,22.243156 L19.2292228,36.3 L1.98676146,36.3 C0.889433685,36.3 0,35.4031544 0,34.2966822 L0,2.00331781 C0,0.896845632 0.889433685,0 1.98676146,0 L34.0132385,0 C35.1105663,0 36,0.896845632 36,2.00331781 L36,34.2966822" id="Facebook"></path>
                        </g>
                    </g>
                </g>
            </g>
        </g>
    </g>
</svg>