<?xml version="1.0" encoding="UTF-8"?>
<svg width="12px" height="16px" viewBox="0 0 12 16" version="1.1" xmlns="http://www.w3.org/2000/svg" xmlns:xlink="http://www.w3.org/1999/xlink">
    <!-- Generator: Sketch 53 (72520) - https://sketchapp.com -->
    <title>Fill 1822</title>
    <desc>Created with Sketch.</desc>
    <g id="Desktop-Screens" stroke="none" stroke-width="1" fill="none" fill-rule="evenodd">
        <g id="Tickr-Homepage-Desktop-07" transform="translate(-973.000000, -1308.000000)" fill="#3880F9">
            <g id="02-Section-Feature-Preview" transform="translate(140.000000, 1154.000000)">
                <g id="Group-2" transform="translate(784.000000, 0.000000)">
                    <g id="Button-Download" transform="translate(0.000000, 135.000000)">
                        <path d="M56,24 L56,20 L60,24 L56,24 Z M60.854,23.146 L56.854,19.146 C56.76,19.053 56.632,19 56.5,19 L49.5,19 C49.224,19 49,19.224 49,19.5 L49,34.5 C49,34.776 49.224,35 49.5,35 L60.5,35 C60.776,35 61,34.776 61,34.5 L61,23.5 C61,23.367 60.947,23.24 60.854,23.146 L60.854,23.146 Z" id="Fill-1822"></path>
                    </g>
                </g>
            </g>
        </g>
    </g>
</svg>