<?xml version="1.0" encoding="UTF-8"?>
<svg width="41px" height="35px" viewBox="0 0 41 35" version="1.1" xmlns="http://www.w3.org/2000/svg" xmlns:xlink="http://www.w3.org/1999/xlink">
    <!-- Generator: Sketch 52.6 (67491) - http://www.bohemiancoding.com/sketch -->
    <title>Group 20</title>
    <desc>Created with Sketch.</desc>
    <g id="Desktop-Screens" stroke="none" stroke-width="1" fill="none" fill-rule="evenodd">
        <g id="Tickr-Homepage-Desktop-07" transform="translate(-896.000000, -9594.000000)" fill="#FFFFFF">
            <g id="11-Section-Footer" transform="translate(0.000000, 9149.000000)">
                <g id="Social" transform="translate(728.000000, 444.000000)">
                    <g id="Group-20" transform="translate(168.000000, 1.000000)">
                        <g id="Group-17" transform="translate(0.000000, 0.017647)">
                            <path d="M39.8691694,0.631605373 C38.2424372,1.61896767 36.444931,2.33704934 34.5237231,2.72126682 C32.993325,1.04647268 30.8061036,0 28.3846154,0 C23.7430646,0 19.9761835,3.86187826 19.9761835,8.62464252 C19.9761835,9.30003336 20.048434,9.95681538 20.1929351,10.5884207 C13.2021467,10.2282853 7.00501962,6.79878851 2.85389688,1.57408757 C2.12920193,2.85262323 1.71540331,4.33585595 1.71540331,5.91432206 C1.71540331,8.90596415 3.19982378,11.5462279 5.45820095,13.0929495 C4.0810616,13.0513533 2.78164633,12.6594734 1.64534216,12.0169216 L1.64534216,12.1231014 C1.64534216,16.3035189 4.54521667,19.7910314 8.39639014,20.5802645 C7.69139989,20.7827723 6.94700024,20.8834789 6.17961178,20.8834789 C5.63773262,20.8834789 5.10898993,20.8320309 4.59666782,20.7313244 C5.66728967,24.1564426 8.77187408,26.6511196 12.4533682,26.7167978 C9.57538782,29.0319544 5.94643954,30.4111967 2.00659493,30.4111967 C1.32787761,30.4111967 0.656823218,30.3717897 0,30.2929759 C3.72199824,32.736205 8.14570261,34.1647059 12.8945345,34.1647059 C28.3681948,34.1647059 36.8269832,21.024687 36.8269832,9.62623509 C36.8269832,9.25077471 36.8204149,8.87640896 36.8061838,8.50861103 C38.4493365,7.29137502 39.8768323,5.77420857 41,4.04468259 C39.4936854,4.72992516 37.8713321,5.19405112 36.1701599,5.40203209 C37.9074573,4.33585595 39.2408085,2.64464225 39.8691694,0.631605373" id="Twitter"></path>
                        </g>
                    </g>
                </g>
            </g>
        </g>
    </g>
</svg>