<?xml version="1.0" encoding="UTF-8"?>
<svg width="220px" height="249px" viewBox="0 0 220 249" version="1.1" xmlns="http://www.w3.org/2000/svg" xmlns:xlink="http://www.w3.org/1999/xlink">
    <!-- Generator: Sketch 52.6 (67491) - http://www.bohemiancoding.com/sketch -->
    <title>Anchor-Feature-01</title>
    <desc>Created with Sketch.</desc>
    <defs>
        <rect id="path-1" x="0" y="0" width="180" height="180" rx="10"></rect>
        <filter x="-20.8%" y="-12.5%" width="141.7%" height="141.7%" filterUnits="objectBoundingBox" id="filter-2">
            <feOffset dx="0" dy="15" in="SourceAlpha" result="shadowOffsetOuter1"></feOffset>
            <feGaussianBlur stdDeviation="10" in="shadowOffsetOuter1" result="shadowBlurOuter1"></feGaussianBlur>
            <feColorMatrix values="0 0 0 0 0.0980392157   0 0 0 0 0.301960784   0 0 0 0 0.643137255  0 0 0 0.1 0" type="matrix" in="shadowBlurOuter1"></feColorMatrix>
        </filter>
        <linearGradient x1="193.266873%" y1="111.557446%" x2="100.974785%" y2="-57.9389247%" id="linearGradient-3">
            <stop stop-color="#FFF1EB" offset="0%"></stop>
            <stop stop-color="#FFB595" offset="100%"></stop>
        </linearGradient>
        <linearGradient x1="196.12428%" y1="116.805134%" x2="100.974785%" y2="-57.9389247%" id="linearGradient-4">
            <stop stop-color="#FFF1EB" offset="3.00307081%"></stop>
            <stop stop-color="#FFB595" offset="100%"></stop>
        </linearGradient>
        <linearGradient x1="-113.963383%" y1="13.3315453%" x2="203.54147%" y2="115.387368%" id="linearGradient-5">
            <stop stop-color="#FFB08E" offset="0%"></stop>
            <stop stop-color="#FF3C46" offset="100%"></stop>
        </linearGradient>
        <linearGradient x1="10.9991574%" y1="-8.60740002%" x2="67.1357625%" y2="131.685277%" id="linearGradient-6">
            <stop stop-color="#FFCDB8" offset="0%"></stop>
            <stop stop-color="#FFE6E6" offset="100%"></stop>
        </linearGradient>
        <linearGradient x1="32.3134932%" y1="100%" x2="100%" y2="-23.4058973%" id="linearGradient-7">
            <stop stop-color="#FF9B6F" offset="0%"></stop>
            <stop stop-color="#FFD9E0" offset="100%"></stop>
        </linearGradient>
        <linearGradient x1="93.1895598%" y1="87.5334053%" x2="58.3288794%" y2="-40.3432766%" id="linearGradient-8">
            <stop stop-color="#FF9B6F" offset="0%"></stop>
            <stop stop-color="#FF718D" offset="100%"></stop>
        </linearGradient>
        <linearGradient x1="37.187179%" y1="-130.09367%" x2="-17.6322778%" y2="175.598276%" id="linearGradient-9">
            <stop stop-color="#FF5B14" offset="0%"></stop>
            <stop stop-color="#FFECE4" offset="100%"></stop>
        </linearGradient>
        <linearGradient x1="100%" y1="0%" x2="0.0166050542%" y2="99.8522553%" id="linearGradient-10">
            <stop stop-color="#FFFFFF" offset="0%"></stop>
            <stop stop-color="#FFDCCC" offset="99.95%"></stop>
        </linearGradient>
        <linearGradient x1="58.3288794%" y1="-40.3432766%" x2="93.1895598%" y2="87.5334053%" id="linearGradient-11">
            <stop stop-color="#FF9B6F" offset="0%"></stop>
            <stop stop-color="#FF718D" offset="100%"></stop>
        </linearGradient>
    </defs>
    <g id="Desktop-Screens" stroke="none" stroke-width="1" fill="none" fill-rule="evenodd">
        <g id="Tickr-Homepage-Desktop-07" transform="translate(-806.000000, -1438.000000)">
            <g id="02-Section-Feature-Preview" transform="translate(140.000000, 1154.000000)">
                <g id="Anchor-Feature-01" transform="translate(686.000000, 289.000000)">
                    <g id="Background-Feature-Anchor">
                        <use fill="black" fill-opacity="1" filter="url(#filter-2)" xlink:href="#path-1"></use>
                        <use fill="#FFFFFF" fill-rule="evenodd" xlink:href="#path-1"></use>
                    </g>
                    <g id="Group-30" transform="translate(35.000000, 26.000000)">
                        <path d="M41.0769231,41.1428571 L32.5897436,41.1428571 C32.4487179,41.1428571 32.3333333,40.807486 32.3333333,40.3975879 L32.3333333,16.2881264 C32.3333333,15.8782283 32.4487179,15.5428571 32.5897436,15.5428571 L41.0769231,15.5428571 C41.2179487,15.5428571 41.3333333,15.8782283 41.3333333,16.2881264 L41.3333333,40.3975879 C41.3333333,40.807486 41.2179487,41.1428571 41.0769231,41.1428571 Z" id="Path-Copy-4" fill="url(#linearGradient-3)"></path>
                        <path d="M53.6602564,41.1428571 L45.1730769,41.1428571 C45.0320513,41.1428571 44.9166667,40.6038677 44.9166667,39.9451029 L44.9166667,1.19775421 C44.9166667,0.538989395 45.0320513,0 45.1730769,0 L53.6602564,0 C53.8012821,0 53.9166667,0.538989395 53.9166667,1.19775421 L53.9166667,39.9451029 C53.9166667,40.6038677 53.8012821,41.1428571 53.6602564,41.1428571 Z" id="Path-Copy-10" fill="url(#linearGradient-4)"></path>
                        <path d="M66.2435897,41.1428571 L57.7564103,41.1428571 C57.6153846,41.1428571 57.5,40.7116656 57.5,40.1846538 L57.5,9.1867748 C57.5,8.65976294 57.6153846,8.22857143 57.7564103,8.22857143 L66.2435897,8.22857143 C66.3846154,8.22857143 66.5,8.65976294 66.5,9.1867748 L66.5,40.1846538 C66.5,40.7116656 66.3846154,41.1428571 66.2435897,41.1428571 Z" id="Path-Copy-11" fill="url(#linearGradient-4)"></path>
                        <path d="M78.8269231,41.1428571 L70.3397436,41.1428571 C70.1987179,41.1428571 70.0833333,40.8913288 70.0833333,40.5839052 L70.0833333,22.5018091 C70.0833333,22.1943855 70.1987179,21.9428571 70.3397436,21.9428571 L78.8269231,21.9428571 C78.9679487,21.9428571 79.0833333,22.1943855 79.0833333,22.5018091 L79.0833333,40.5839052 C79.0833333,40.8913288 78.9679487,41.1428571 78.8269231,41.1428571 Z" id="Path-Copy-12" fill="url(#linearGradient-4)"></path>
                        <path d="M28.4935897,41.1428571 L20.0064103,41.1428571 C19.8653846,41.1428571 19.75,40.9751716 19.75,40.7702225 L19.75,28.7154918 C19.75,28.5105427 19.8653846,28.3428571 20.0064103,28.3428571 L28.4935897,28.3428571 C28.6346154,28.3428571 28.75,28.5105427 28.75,28.7154918 L28.75,40.7702225 C28.75,40.9751716 28.6346154,41.1428571 28.4935897,41.1428571 Z" id="Path-Copy-13" fill="url(#linearGradient-4)"></path>
                        <g id="Computer" transform="translate(0.000000, 37.485714)">
                            <g id="Group">
                                <path d="M100.780449,0.0877076412 L98.9471154,0.0877076412 C100.956731,0.0877076412 102.596154,1.71906977 102.596154,3.71880399 L102.596154,68.938206 C102.596154,70.9379402 100.956731,72.5693023 98.9471154,72.5693023 L100.780449,72.5693023 C102.790064,72.5693023 104.429487,70.9379402 104.429487,68.938206 L104.429487,3.71880399 C104.429487,1.71906977 102.790064,0.0877076412 100.780449,0.0877076412 Z" id="Path" fill="url(#linearGradient-5)"></path>
                                <path d="M58.3846154,87.1112292 L23.1987179,87.1112292 C22.2644231,87.1112292 20.9951923,88.5671761 20.9951923,89.2337542 L20.9951923,90.5142857 L56.1810897,90.5142857 L56.1810897,87.9707641 C56.1810897,87.2866445 57.4503205,87.1112292 58.3846154,87.1112292 Z" id="Path" fill="url(#linearGradient-6)"></path>
                                <polygon id="Path" fill="url(#linearGradient-6)" points="36.0144231 72.5693023 39.1346154 87.1112292 66.6698718 87.1112292 63.5496795 72.5693023"></polygon>
                                <path d="M102.596154,68.938206 C102.596154,70.9379402 100.956731,72.5693023 98.9471154,72.5693023 L3.68429487,72.5693023 C1.67467949,72.5693023 0.0352564103,70.9379402 0.0352564103,68.938206 L0.0352564103,3.71880399 C0.0352564103,1.71906977 1.67467949,0.0877076412 3.68429487,0.0877076412 L98.9294872,0.0877076412 C100.939103,0.0877076412 102.578526,1.71906977 102.578526,3.71880399 L102.578526,68.938206 L102.596154,68.938206 Z" id="Path" fill="url(#linearGradient-6)"></path>
                                <path d="M0.0352564103,61.167309 L0.0352564103,69.1487043 C0.0352564103,71.0256478 1.58653846,72.5693023 3.47275641,72.5693023 L99.3173077,72.5693023 C101.133013,72.5693023 102.613782,71.095814 102.613782,69.2890365 L102.613782,61.167309 L0.0352564103,61.167309 Z" id="Path" fill="url(#linearGradient-7)"></path>
                                <ellipse id="Oval" fill="#FFFFFF" cx="50.3108974" cy="66.5700997" rx="2.57371795" ry="2.56106312"></ellipse>
                                <rect id="Rectangle" fill="#FFFFFF" x="3.20833333" y="3.71880399" width="96.2323718" height="54.5366113"></rect>
                                <path d="M32.3922036,31.7501661 L13.4411297,31.7501661 C13.1262327,31.7501661 12.8685897,31.4950862 12.8685897,31.183322 L12.8685897,12.8459139 C12.8685897,12.5341496 13.1262327,12.2790698 13.4411297,12.2790698 L32.3922036,12.2790698 C32.7071006,12.2790698 32.9647436,12.5341496 32.9647436,12.8459139 L32.9647436,31.183322 C32.9647436,31.4950862 32.7071006,31.7501661 32.3922036,31.7501661 Z" id="Path" fill="url(#linearGradient-8)"></path>
                                <path d="M32.3922036,41.3980066 L13.4411297,41.3980066 C13.1262327,41.3980066 12.8685897,41.3313642 12.8685897,41.2499122 L12.8685897,36.4590579 C12.8685897,36.3776059 13.1262327,36.3109635 13.4411297,36.3109635 L32.3922036,36.3109635 C32.7071006,36.3109635 32.9647436,36.3776059 32.9647436,36.4590579 L32.9647436,41.2499122 C32.9647436,41.3313642 32.7071006,41.3980066 32.3922036,41.3980066 Z" id="Path-Copy-4" fill="url(#linearGradient-8)" opacity="0.300000012"></path>
                                <path d="M32.3922036,49.9933555 L13.4411297,49.9933555 C13.1262327,49.9933555 12.8685897,49.926713 12.8685897,49.8452611 L12.8685897,45.0544067 C12.8685897,44.9729548 13.1262327,44.9063123 13.4411297,44.9063123 L32.3922036,44.9063123 C32.7071006,44.9063123 32.9647436,44.9729548 32.9647436,45.0544067 L32.9647436,49.8452611 C32.9647436,49.926713 32.7071006,49.9933555 32.3922036,49.9933555 Z" id="Path-Copy-5" fill="url(#linearGradient-8)" opacity="0.300000012"></path>
                                <path d="M61.4787421,41.3980066 L42.5276682,41.3980066 C42.2127712,41.3980066 41.9551282,41.3313642 41.9551282,41.2499122 L41.9551282,36.4590579 C41.9551282,36.3776059 42.2127712,36.3109635 42.5276682,36.3109635 L61.4787421,36.3109635 C61.7936391,36.3109635 62.0512821,36.3776059 62.0512821,36.4590579 L62.0512821,41.2499122 C62.0512821,41.3313642 61.7936391,41.3980066 61.4787421,41.3980066 Z" id="Path-Copy-7" fill="url(#linearGradient-9)" opacity="0.300000012"></path>
                                <path d="M90.3889985,41.3980066 L71.4379246,41.3980066 C71.1230276,41.3980066 70.8653846,41.3313642 70.8653846,41.2499122 L70.8653846,36.4590579 C70.8653846,36.3776059 71.1230276,36.3109635 71.4379246,36.3109635 L90.3889985,36.3109635 C90.7038955,36.3109635 90.9615385,36.3776059 90.9615385,36.4590579 L90.9615385,41.2499122 C90.9615385,41.3313642 90.7038955,41.3980066 90.3889985,41.3980066 Z" id="Path-Copy-8" fill="url(#linearGradient-8)" opacity="0.300000012"></path>
                                <path d="M61.4787421,49.9933555 L42.5276682,49.9933555 C42.2127712,49.9933555 41.9551282,49.926713 41.9551282,49.8452611 L41.9551282,45.0544067 C41.9551282,44.9729548 42.2127712,44.9063123 42.5276682,44.9063123 L61.4787421,44.9063123 C61.7936391,44.9063123 62.0512821,44.9729548 62.0512821,45.0544067 L62.0512821,49.8452611 C62.0512821,49.926713 61.7936391,49.9933555 61.4787421,49.9933555 Z" id="Path-Copy-6" fill="url(#linearGradient-9)" opacity="0.300000012"></path>
                                <path d="M90.3889985,49.9933555 L71.4379246,49.9933555 C71.1230276,49.9933555 70.8653846,49.926713 70.8653846,49.8452611 L70.8653846,45.0544067 C70.8653846,44.9729548 71.1230276,44.9063123 71.4379246,44.9063123 L90.3889985,44.9063123 C90.7038955,44.9063123 90.9615385,44.9729548 90.9615385,45.0544067 L90.9615385,49.8452611 C90.9615385,49.926713 90.7038955,49.9933555 90.3889985,49.9933555 Z" id="Path-Copy-9" fill="url(#linearGradient-8)" opacity="0.300000012"></path>
                                <path d="M61.4787421,31.7501661 L42.5276682,31.7501661 C42.2127712,31.7501661 41.9551282,31.4950862 41.9551282,31.183322 L41.9551282,12.8459139 C41.9551282,12.5341496 42.2127712,12.2790698 42.5276682,12.2790698 L61.4787421,12.2790698 C61.7936391,12.2790698 62.0512821,12.5341496 62.0512821,12.8459139 L62.0512821,31.183322 C62.0512821,31.4950862 61.7936391,31.7501661 61.4787421,31.7501661 Z" id="Path" fill="url(#linearGradient-9)"></path>
                                <path d="M90.5652805,31.7501661 L71.6142067,31.7501661 C71.2993097,31.7501661 71.0416667,31.4950862 71.0416667,31.183322 L71.0416667,12.8459139 C71.0416667,12.5341496 71.2993097,12.2790698 71.6142067,12.2790698 L90.5652805,12.2790698 C90.8801775,12.2790698 91.1378205,12.5341496 91.1378205,12.8459139 L91.1378205,31.183322 C91.1378205,31.4950862 90.8801775,31.7501661 90.5652805,31.7501661 Z" id="Path" fill="url(#linearGradient-8)"></path>
                                <path d="M65.7355769,72.5693023 L63.5496795,72.5693023 L66.6698718,87.1112292 L56.1282051,87.1112292 C55.2820513,87.1112292 54.1362179,87.2866445 54.1362179,87.9532226 L54.1362179,90.4967442 L66.6522436,90.4967442 C67.8685897,90.4967442 68.8557692,89.5144186 68.8557692,88.3040532 L68.8557692,87.0936877 L65.7355769,72.5693023 Z" id="Path" fill="url(#linearGradient-8)"></path>
                            </g>
                        </g>
                        <g id="Magnifying_Glass" transform="translate(86.500000, 95.191694) scale(-1, 1) translate(-86.500000, -95.191694) translate(63.000000, 71.691694)">
                            <g id="Group">
                                <polygon id="Path" fill="url(#linearGradient-10)" points="12.4786953 35.6460968 10.9046003 34.081478 19.4138386 25.6234665 20.9879336 27.1880852"></polygon>
                                <polygon id="Path" fill="url(#linearGradient-8)" points="2.96568627 46.3263204 0.159690799 43.5372174 10.2886501 33.4692359 13.0946456 36.2583389"></polygon>
                                <path d="M39.2383107,7.36958107 C33.5350679,1.70067255 24.2730015,1.70067255 18.5697587,7.36958107 C12.8665158,13.0384896 12.8665158,22.244797 18.5697587,27.9137055 C24.2730015,33.5826141 33.5350679,33.5826141 39.2383107,27.9137055 C44.9415535,22.244797 44.9643665,13.0384896 39.2383107,7.36958107 Z M37.7098416,26.3717624 C32.8506787,31.2016725 24.9802036,31.2016725 20.1210407,26.3717624 C15.2618778,21.5418524 15.2618778,13.7187586 20.1210407,8.88884855 C24.9802036,4.0589385 32.8506787,4.0589385 37.7098416,8.88884855 C42.5690045,13.7187586 42.5690045,21.5418524 37.7098416,26.3717624 Z" id="Shape" fill="url(#linearGradient-11)"></path>
                                <circle id="Oval" fill="#FFFFFF" opacity="0.8" transform="translate(28.905369, 17.642734) rotate(-45.000000) translate(-28.905369, -17.642734) " cx="28.9053692" cy="17.642734" r="12.3955838"></circle>
                            </g>
                        </g>
                    </g>
                    <text id="Text-Feature-Title" font-family="Helvetica" font-size="16" font-weight="normal" line-spacing="24" letter-spacing="2" fill="#FF7F46">
                        <tspan x="46.9960938" y="218">WEBSITE</tspan>
                        <tspan x="45.3671875" y="242">MONITOR</tspan>
                    </text>
                </g>
            </g>
        </g>
    </g>
</svg>